# xmcd
#
# Track frame offsets:
#	150
#	14744
#	32875
#	48283
#	60971
#	74828
#	90877
#	107768
#	124997
#	139578
#	156228
#	177144
#
# Disc length: 2613 seconds
#
# Revision: 0
# Processed by: cddbd v1.5.1PL0 Copyright (c) Steve Scherf et al.
# Submitted via: audiograbber 1.83.01
#
DISCID=a10a330c
DTITLE=Pierre Ludik - Down to Earth
DYEAR=1900
DGENRE=
TTITLE0=Klein Karoo
TTITLE1=Feeling The Feeling
TTITLE2=Delilah
TTITLE3=Cracklin' Rosie
TTITLE4=I Can't Dance
TTITLE5=A Man Without Love
TTITLE6=Sproetjies
TTITLE7=Livin' On Love
TTITLE8=Spanish Night Is Over
TTITLE9=Sweet Caroline
TTITLE10=Hantam Berge
TTITLE11=Senorita Bonita
EXTD=Pierre has fulfilled his dream with this album, as he is a luekemia suffer
EXTD=er.
EXTT0=
EXTT1=
EXTT2=
EXTT3=
EXTT4=
EXTT5=
EXTT6=
EXTT7=
EXTT8=
EXTT9=
EXTT10=
EXTT11=
PLAYORDER=
